<svg width="121" height="22" viewBox="0 0 121 22" fill="none" xmlns="http://www.w3.org/2000/svg">
<g clip-path="url(#clip0_3901_13780)">
<path d="M14.7095 4.61062V4.7676V6.5061H19.4129L19.6797 0.960938H0.758301V4.61062H14.5525H14.7095Z" fill="black"/>
<path d="M15.4022 13.4375H5.0457C3.81148 13.4375 2.7774 13.8358 1.97094 14.6246C1.16644 15.4115 0.758301 16.4259 0.758301 17.6405C0.758301 18.8551 1.16644 19.8696 1.97094 20.6545C2.77544 21.4413 3.81148 21.8416 5.0457 21.8416H15.4022C16.6364 21.8416 17.6705 21.4433 18.4769 20.6545C19.2814 19.8676 19.6876 18.8532 19.6876 17.6405C19.6876 16.4279 19.2795 15.4115 18.475 14.6246C17.6685 13.8378 16.6344 13.4375 15.4002 13.4375H15.4022ZM14.4799 18.1311C14.3445 18.2645 14.1797 18.3332 13.9874 18.3332H6.46044C6.26814 18.3332 6.10136 18.2645 5.96793 18.1311C5.8345 17.9976 5.76778 17.8328 5.76778 17.6386C5.76778 17.4443 5.8345 17.2795 5.96793 17.146C6.10332 17.0126 6.26814 16.9459 6.46044 16.9459H13.9874C14.1797 16.9459 14.3445 17.0126 14.478 17.146C14.6134 17.2814 14.6801 17.4482 14.6801 17.6405C14.6801 17.8328 14.6134 17.9996 14.4799 18.133V18.1311Z" fill="black"/>
<path d="M11.7939 8.17295V8.01598V6.25H6.81381V8.01598V8.17295H6.65879H0.193359V11.7932H20.2548V8.17295H11.9508H11.7939Z" fill="black"/>
<path d="M29.9734 13.9167H32.6322C34.0195 13.9167 35.1458 13.54 35.9797 12.7943C36.8097 12.0565 37.2296 11.0578 37.2296 9.8275C37.2296 8.5972 36.8097 7.59844 35.9797 6.85869C35.1438 6.11502 34.0175 5.73828 32.6322 5.73828H29.9734C28.5861 5.73828 27.4598 6.11502 26.6239 6.85869C25.7939 7.59844 25.374 8.5972 25.374 9.8275C25.374 11.0578 25.7939 12.0565 26.6239 12.7943C27.4579 13.538 28.5842 13.9167 29.9734 13.9167ZM30.0342 9.17997C30.1951 9.01907 30.4031 8.93666 30.6543 8.93666H31.9847C32.2339 8.93666 32.4418 9.01907 32.6047 9.17997C32.7676 9.34283 32.848 9.55083 32.848 9.80002C32.848 10.0492 32.7656 10.2572 32.6047 10.4201C32.4438 10.581 32.2358 10.6634 31.9847 10.6634H30.6543C30.4031 10.6634 30.1951 10.581 30.0342 10.4201C29.8733 10.2592 29.7909 10.0492 29.7909 9.80002C29.7909 9.55083 29.8733 9.34283 30.0342 9.18193V9.17997Z" fill="black"/>
<path d="M33.8079 1.77933V1.62432V0.0820312H28.8003V1.62432V1.77933H28.6434H25.0938V4.91884H37.5144V1.77933H33.9629H33.8079Z" fill="black"/>
<path d="M44.6447 5.43031V5.27529V0.648438H39.6372V13.8913H44.6447V9.51952V9.36255H44.7997H46.7678V5.43031H44.7997H44.6447Z" fill="black"/>
<path d="M25.6587 18.8705H39.4804H39.6374V19.0255V21.8413H44.6449V15.1914L25.6587 15.2189V18.8705Z" fill="black"/>
<path d="M69.4039 8.82581H55.6371H55.4821V8.66884V4.96225V4.80724H55.6371H69.4039V0.875H50.4746V12.7581H69.4039V8.82581Z" fill="black"/>
<path d="M62.7267 17.0594V16.9044V13.918H57.7173V16.9044V17.0594H57.5622H49.9077V20.9917H69.9692V17.0594H62.8817H62.7267Z" fill="black"/>
<path d="M84.1143 13.6369C83.402 11.863 83.0429 9.23958 83.0429 5.8391V0.929688H78.3454V5.8391C78.3454 9.23762 77.9844 11.8611 77.274 13.6369C76.5794 15.3675 75.5767 16.4958 74.2915 16.9942L75.8809 20.9696C76.6599 20.8067 77.4604 20.4025 78.261 19.7668C79.1087 19.0937 79.8877 18.1597 80.5725 16.9942L80.7079 16.7626L80.8413 16.9961C81.5065 18.1617 82.2698 19.0937 83.1096 19.7668C83.9023 20.4025 84.7088 20.8087 85.5035 20.9696L87.0948 16.9942C85.8096 16.4958 84.8069 15.3675 84.1123 13.6369H84.1143Z" fill="black"/>
<path d="M85.5312 7.69299V11.6252H88.5746H88.7296V11.7802V21.8404H93.7372V0.589844H88.7296V7.53798V7.69299H88.5746H85.5312Z" fill="black"/>
<path d="M104.715 9.33496V9.17994V6.58984H100.273V9.17994V9.33496H100.118H98.5757V13.2103H111.932V9.33496H104.872H104.715Z" fill="black"/>
<path d="M118.072 5.7423V5.58532V0.648438H113.092V14.9097H118.072V9.82955V9.67454H118.227H120.193V5.7423H118.227H118.072Z" fill="black"/>
<path d="M106.386 4.86389V5.0189V7.89156H110.806L111.077 0.929688H99.1411V4.86389H106.231H106.386Z" fill="black"/>
<path d="M104.151 17.9057V17.7506V14.6523H99.1411V21.8399H118.072V17.9057H104.306H104.151Z" fill="black"/>
</g>
<defs>
<clipPath id="clip0_3901_13780">
<rect width="120" height="21.7588" fill="white" transform="translate(0.193359 0.0820312)"/>
</clipPath>
</defs>
</svg>
